<?xml version="1.0" standalone="no"?>
<!DOCTYPE svg PUBLIC "-//W3C//DTD SVG 20010904//EN"
 "http://www.w3.org/TR/2001/REC-SVG-20010904/DTD/svg10.dtd">
<svg version="1.0" xmlns="http://www.w3.org/2000/svg"
 width="3001.000000pt" height="3001.000000pt" viewBox="0 0 3001.000000 3001.000000"
 preserveAspectRatio="xMidYMid meet">
<metadata>
Created by potrace 1.14, written by Peter Selinger 2001-2017
</metadata>
<g transform="translate(0.000000,3001.000000) scale(0.100000,-0.100000)"
fill="#000000" stroke="none">
<path d="M15325 29355 c-144 -52 -480 -170 -880 -310 -459 -161 -552 -193
-583 -206 -12 -5 -75 -27 -140 -48 -64 -22 -169 -59 -232 -81 -105 -38 -577
-204 -810 -285 -52 -19 -160 -57 -240 -85 -80 -28 -177 -62 -215 -75 -39 -13
-88 -30 -110 -38 -22 -9 -123 -45 -225 -81 -102 -35 -270 -94 -375 -131 -104
-37 -280 -99 -390 -137 -110 -39 -249 -88 -310 -109 -60 -22 -141 -50 -180
-63 -38 -14 -142 -50 -230 -81 -88 -31 -243 -86 -345 -122 -102 -35 -234 -82
-295 -103 -60 -21 -150 -53 -200 -70 -49 -18 -164 -58 -255 -90 -91 -32 -250
-88 -355 -125 -104 -37 -271 -95 -370 -130 -99 -34 -220 -77 -270 -95 -49 -17
-139 -49 -200 -70 -60 -21 -182 -64 -270 -95 -88 -31 -171 -60 -185 -65 -14
-4 -104 -36 -200 -70 -96 -34 -256 -90 -355 -125 -99 -35 -265 -93 -370 -130
-104 -37 -350 -123 -545 -191 -195 -69 -384 -135 -420 -148 -36 -13 -110 -40
-165 -59 -192 -68 -541 -190 -620 -217 -44 -16 -156 -55 -250 -88 -93 -33
-244 -86 -335 -118 -91 -31 -167 -61 -170 -65 -3 -4 -5 -1307 -5 -2895 l0
-2887 25 -8 c14 -4 81 -24 150 -44 69 -20 134 -40 145 -45 11 -4 58 -20 105
-35 179 -57 899 -318 995 -360 17 -8 91 -37 165 -65 74 -28 149 -57 165 -64
17 -8 68 -28 115 -46 47 -17 99 -38 115 -45 17 -7 55 -22 85 -34 30 -12 64
-26 75 -31 11 -5 128 -52 260 -105 132 -53 265 -107 295 -120 30 -13 111 -47
180 -75 162 -67 287 -119 325 -135 17 -7 113 -48 215 -90 102 -42 199 -83 215
-90 17 -8 118 -50 225 -95 190 -80 635 -269 695 -295 17 -7 91 -39 165 -70 74
-31 149 -63 165 -70 17 -7 154 -66 305 -130 151 -64 289 -122 305 -130 17 -7
75 -32 130 -55 55 -23 118 -50 140 -60 22 -10 78 -34 125 -53 47 -19 182 -75
300 -124 118 -50 225 -94 237 -97 13 -4 29 -13 35 -20 7 -6 60 -28 118 -48
432 -150 469 -164 755 -286 141 -60 435 -188 510 -222 103 -46 455 -194 590
-248 83 -33 373 -156 645 -272 698 -299 1039 -434 1230 -484 l85 -23 0 -3008
0 -3009 -60 -23 c-33 -12 -69 -27 -80 -33 -11 -5 -38 -16 -60 -23 -41 -15
-455 -180 -490 -196 -11 -5 -130 -53 -265 -106 -135 -53 -258 -103 -275 -110
-16 -7 -298 -119 -625 -249 -327 -130 -604 -241 -615 -246 -11 -5 -128 -52
-260 -105 -238 -96 -695 -283 -915 -375 -63 -27 -270 -112 -460 -190 -190 -78
-358 -148 -375 -155 -57 -25 -410 -168 -535 -217 -69 -26 -133 -53 -142 -58
-16 -9 -17 51 -18 1063 -3 6242 -5 7329 -15 7335 -5 5 -26 13 -45 19 -82 26
-388 135 -417 149 -17 8 -34 14 -37 14 -6 0 -155 58 -456 177 -63 25 -137 56
-165 68 -27 12 -77 32 -110 45 -33 13 -64 27 -69 32 -6 4 -16 8 -23 8 -7 0
-32 9 -56 20 -23 10 -168 73 -322 138 -240 103 -527 227 -670 292 -75 34 -420
178 -515 216 -52 20 -99 41 -105 45 -5 5 -15 9 -22 9 -7 0 -32 8 -56 19 -23
10 -67 28 -97 40 -30 12 -64 26 -75 31 -11 5 -87 36 -170 69 -132 52 -263 109
-415 179 -240 111 -361 127 -563 76 -71 -18 -298 -102 -311 -115 -6 -5 -16 -9
-23 -9 -7 0 -36 -11 -65 -24 -49 -23 -126 -57 -138 -61 -3 -1 -16 -6 -30 -12
-14 -6 -92 -39 -175 -73 -82 -34 -163 -68 -180 -76 -16 -7 -91 -38 -165 -67
-74 -30 -184 -75 -245 -100 -60 -24 -180 -73 -265 -107 -212 -85 -541 -219
-565 -230 -11 -5 -65 -27 -120 -50 -95 -39 -233 -97 -301 -126 -345 -149
-1158 -481 -1639 -668 -121 -48 -240 -95 -265 -106 -25 -10 -101 -42 -170 -71
-139 -57 -265 -116 -331 -153 l-43 -25 30 -12 c16 -6 38 -15 49 -19 11 -4 36
-15 55 -23 19 -8 75 -31 125 -51 50 -20 99 -41 110 -46 36 -16 755 -310 760
-310 2 0 28 -11 57 -24 29 -13 100 -43 158 -66 95 -38 135 -55 195 -81 11 -5
58 -24 105 -43 47 -18 99 -39 115 -46 17 -7 44 -19 60 -25 17 -7 192 -79 390
-160 198 -81 374 -153 390 -160 17 -7 44 -18 60 -25 54 -22 638 -262 890 -365
77 -31 154 -63 170 -70 63 -28 422 -173 457 -186 l38 -13 0 -76 c0 -41 3
-1454 5 -3139 3 -1686 8 -3068 12 -3072 5 -4 145 -64 313 -134 168 -70 334
-139 370 -155 36 -15 106 -45 155 -65 50 -20 104 -42 120 -50 17 -7 120 -50
230 -95 110 -45 214 -88 230 -95 33 -15 285 -119 520 -215 83 -34 159 -65 170
-70 17 -8 316 -131 710 -292 55 -22 114 -47 130 -54 17 -7 66 -27 110 -44 44
-17 94 -37 110 -45 34 -14 128 -53 300 -123 66 -27 176 -72 245 -100 69 -28
215 -87 325 -132 110 -44 209 -84 220 -89 43 -19 96 -41 245 -101 85 -35 219
-89 297 -121 77 -32 221 -90 320 -130 98 -39 192 -77 208 -84 17 -8 143 -59
280 -115 138 -56 259 -105 270 -110 11 -5 184 -77 385 -159 358 -146 554 -229
916 -389 192 -84 391 -157 465 -170 94 -15 270 -7 354 17 81 23 244 81 300
106 17 7 50 21 75 31 25 9 49 21 54 26 6 4 16 8 22 8 7 0 52 18 99 40 47 22
88 40 89 40 2 0 25 10 52 22 27 12 51 23 54 23 3 1 21 8 40 17 99 43 458 195
545 230 55 22 114 46 130 53 17 7 122 50 235 95 113 45 219 88 235 95 17 8
109 46 205 85 96 40 189 78 205 85 25 11 102 42 180 75 11 4 36 15 55 23 47
20 755 314 1044 434 127 52 245 101 261 108 49 21 460 190 465 191 3 0 16 5
30 11 14 6 50 21 80 32 30 12 69 28 85 35 120 54 364 156 374 156 6 0 11 5 11
10 0 6 7 10 15 10 8 0 23 4 33 10 9 5 256 111 547 236 292 124 544 232 560
239 17 8 46 20 65 28 64 27 1184 508 1225 526 22 10 86 38 142 61 l101 43 -2
5093 c-1 2801 -4 5095 -6 5097 -3 2 -41 19 -85 36 -44 18 -93 39 -110 46 -16
8 -190 80 -385 160 -195 81 -422 175 -505 210 -82 34 -256 106 -385 160 -129
53 -262 108 -295 122 -33 14 -69 29 -80 33 -22 9 -84 35 -130 56 -16 7 -52 22
-80 32 -52 20 -1047 433 -1100 457 -16 7 -70 29 -120 50 -49 20 -103 42 -120
49 -16 7 -115 48 -220 91 -104 42 -199 81 -210 85 -28 12 -69 20 -123 25 -44
5 -71 13 -217 70 -33 13 -125 49 -205 80 -80 30 -154 60 -165 64 -11 5 -139
57 -285 115 -328 130 -702 282 -765 311 -16 7 -82 34 -145 59 -63 26 -128 53
-145 61 -71 32 -265 109 -470 185 -121 45 -229 86 -240 91 -11 5 -58 22 -105
39 -47 17 -94 34 -105 39 -11 5 -90 35 -175 66 -85 31 -164 60 -175 65 -21 10
-953 359 -970 364 -5 2 -17 6 -25 9 -8 3 -161 61 -340 127 -179 66 -334 125
-345 130 -11 4 -72 27 -135 50 -63 23 -124 45 -135 50 -11 5 -245 93 -520 195
-449 167 -530 197 -600 225 -11 5 -54 21 -95 36 -41 14 -79 31 -85 35 -5 6 -9
397 -10 1029 l0 1019 25 6 c25 6 68 19 305 93 138 44 321 101 685 213 124 39
295 92 380 119 85 26 202 63 260 80 58 18 130 40 160 50 30 11 115 37 188 60
329 100 400 122 437 137 22 8 40 14 40 12 0 -2 216 64 265 81 14 5 84 27 155
49 72 22 204 63 295 91 91 29 228 71 305 95 77 24 185 58 240 75 55 18 116 36
135 42 40 11 324 99 415 129 99 32 417 130 465 144 25 7 117 36 205 64 88 29
168 54 177 56 21 5 273 83 308 95 32 11 262 83 275 86 11 2 56 16 222 69 61
20 120 38 130 40 10 2 168 51 352 109 184 58 347 108 361 111 l27 6 1 -988 c1
-543 1 -1587 2 -2319 l0 -1331 63 -23 c134 -48 443 -162 462 -170 11 -5 97
-39 190 -76 94 -36 184 -72 200 -79 17 -8 71 -30 120 -51 50 -20 108 -44 130
-54 136 -61 403 -173 725 -304 118 -48 234 -96 257 -107 24 -10 45 -19 48 -19
2 0 95 -38 205 -85 110 -47 220 -92 244 -100 70 -24 141 -25 220 -3 59 16 253
91 371 143 17 7 64 27 105 43 117 47 442 182 474 198 16 8 33 14 38 14 5 0 28
9 51 19 40 18 473 197 877 363 107 44 213 88 235 98 22 9 99 41 170 70 72 29
148 60 170 70 22 10 76 32 120 50 44 17 94 37 110 45 17 7 174 72 350 145 332
136 693 285 780 322 28 11 59 24 70 28 11 5 36 15 55 23 19 8 168 70 330 136
162 67 304 126 315 131 11 5 76 32 145 60 295 120 330 135 330 142 0 8 -191
102 -290 143 -160 66 -506 207 -515 209 -14 4 -47 16 -70 27 -11 4 -45 18 -75
29 -30 11 -64 25 -75 30 -11 5 -157 61 -325 126 -168 64 -318 122 -335 129
-16 7 -129 52 -250 100 -444 176 -740 312 -785 360 l-23 25 0 1776 0 1776 -46
20 c-25 11 -129 54 -231 95 -102 41 -204 83 -227 94 -24 10 -45 19 -48 19 -4
0 -25 9 -48 19 -23 11 -76 33 -118 49 -42 17 -190 78 -330 135 -140 57 -339
139 -444 182 -345 141 -429 175 -480 197 -27 11 -59 24 -70 29 -11 5 -137 56
-280 114 -143 58 -269 110 -280 115 -11 5 -110 46 -220 90 -110 44 -209 85
-220 90 -11 5 -121 50 -245 101 -124 50 -238 97 -255 104 -35 15 -685 281
-885 362 -121 49 -153 62 -225 94 -11 5 -99 40 -195 79 -96 39 -218 88 -270
110 -52 22 -201 83 -330 135 -129 53 -293 121 -365 150 -71 30 -141 56 -155
59 -16 4 -79 -14 -175 -49z"/>
<path d="M25920 21303 c-31 -5 -145 -41 -185 -58 -16 -7 -109 -45 -205 -85
-96 -39 -188 -77 -205 -85 -16 -7 -115 -47 -220 -90 -104 -42 -203 -82 -220
-90 -16 -7 -64 -26 -105 -43 -138 -54 -705 -284 -735 -297 -16 -7 -88 -36
-160 -64 -71 -29 -139 -56 -150 -61 -18 -8 -158 -65 -500 -202 -55 -22 -108
-44 -117 -48 -9 -5 -56 -25 -105 -44 -48 -19 -153 -62 -233 -94 -80 -33 -208
-85 -285 -117 -464 -189 -1300 -541 -1320 -555 -5 -4 -30 -15 -55 -24 -81 -32
-330 -148 -330 -155 0 -21 308 -167 605 -288 61 -25 124 -51 140 -58 33 -15
583 -234 680 -270 125 -47 369 -146 610 -248 138 -58 297 -124 355 -147 58
-22 119 -47 135 -54 17 -8 80 -33 140 -56 203 -79 710 -282 752 -301 23 -10
44 -19 47 -19 2 0 33 -13 68 -29 35 -16 91 -41 125 -55 61 -26 116 -50 241
-107 l62 -28 0 -4979 c0 -3972 -3 -4981 -12 -4989 -7 -5 -103 -49 -213 -98
-110 -48 -237 -106 -283 -127 -45 -21 -84 -38 -87 -38 -2 0 -35 -14 -72 -31
-38 -17 -149 -67 -248 -111 -99 -44 -205 -91 -235 -105 -30 -14 -116 -52 -190
-85 -74 -33 -157 -70 -185 -83 -27 -12 -108 -48 -180 -80 -71 -31 -152 -68
-180 -80 -27 -13 -93 -42 -145 -65 -52 -23 -113 -50 -135 -60 -22 -10 -188
-84 -370 -165 -181 -81 -343 -153 -360 -160 -16 -7 -55 -24 -85 -38 -30 -13
-75 -34 -100 -45 -25 -11 -126 -56 -226 -100 -99 -44 -200 -89 -225 -100 -45
-20 -188 -84 -269 -120 -238 -106 -352 -156 -390 -174 -25 -11 -85 -38 -135
-60 -49 -22 -108 -47 -130 -57 -45 -21 -56 -26 -250 -111 -77 -34 -158 -70
-180 -80 -22 -10 -83 -37 -135 -60 -150 -66 -183 -81 -215 -95 -461 -206 -939
-411 -1760 -754 -159 -67 -299 -126 -310 -131 -11 -5 -173 -73 -360 -151 -413
-171 -949 -395 -990 -414 -29 -13 -584 -245 -695 -290 -121 -50 -617 -258
-645 -270 -16 -8 -55 -24 -85 -35 -30 -12 -78 -32 -108 -46 -29 -13 -55 -24
-58 -24 -3 0 -24 -9 -47 -19 -23 -11 -118 -51 -212 -90 -93 -38 -201 -83 -238
-99 l-68 -29 33 -13 c62 -25 420 -186 448 -201 8 -5 83 -41 165 -80 246 -116
1020 -505 1435 -722 63 -33 171 -89 240 -125 237 -122 395 -205 465 -242 39
-20 126 -67 195 -103 187 -97 418 -218 615 -322 459 -242 657 -340 777 -388
278 -110 433 -104 781 34 54 21 113 45 130 53 18 8 183 78 367 156 397 169
690 295 745 320 22 10 114 51 205 90 91 39 179 78 195 85 17 8 208 91 425 185
217 94 413 180 435 190 22 9 182 79 355 155 173 75 333 145 355 155 22 10 123
54 225 98 230 99 661 288 715 312 22 10 69 30 105 45 36 15 83 36 105 46 46
21 515 225 1070 466 209 91 398 173 420 183 22 10 182 80 355 155 298 130 340
148 443 194 23 10 70 30 104 45 55 23 107 46 208 91 17 7 100 43 185 80 85 37
178 77 205 90 28 12 100 44 160 70 109 47 509 221 820 357 88 38 175 76 193
84 17 8 47 20 65 28 17 8 75 33 127 55 52 23 104 46 115 51 11 5 43 19 70 30
28 12 68 30 90 39 100 45 258 113 338 146 48 20 100 41 115 47 15 6 29 12 32
13 14 5 242 95 265 105 11 4 58 23 105 40 47 18 99 39 115 46 17 6 91 36 165
64 170 66 524 214 654 273 l99 45 3 179 c6 363 14 1091 21 1903 9 1048 8 6537
-2 8830 -4 949 -8 2092 -9 2541 -1 448 -6 820 -9 826 -4 7 -31 21 -60 31 -28
11 -77 31 -107 45 -30 13 -68 30 -85 37 -16 6 -142 59 -280 117 -137 57 -259
108 -270 112 -11 5 -47 20 -80 34 -33 14 -112 46 -175 72 -116 46 -127 51
-190 78 -19 8 -316 128 -660 265 -344 138 -697 280 -785 317 -88 36 -209 87
-270 112 -60 25 -123 51 -140 59 -16 7 -104 43 -195 79 -91 37 -239 99 -330
137 -91 39 -192 81 -226 94 -60 22 -157 35 -204 27z"/>
</g>
</svg>
